<svg width="208" height="208" viewBox="0 0 208 208" fill="none" xmlns="http://www.w3.org/2000/svg">
<g filter="url(#filter0_d)">
<path d="M204 100C204 155.228 159.228 200 104 200C48.7715 200 4 155.228 4 100C4 44.7715 48.7715 0 104 0C159.228 0 204 44.7715 204 100Z" fill="#ED3309"/>
</g>
<g filter="url(#filter1_d)">
<path fill-rule="evenodd" clip-rule="evenodd" d="M77.1655 63.4464C76.8032 66.4091 74.0047 68.1089 71.0968 69.0644C68.1039 70.0478 64.6361 70.3702 62.3529 70.3702C58.5667 70.3702 56.2964 71.6028 54.9675 73.053C53.6191 74.5245 53.1765 76.2885 53.1765 77.4291V127.601L53.1683 127.654C52.9043 129.37 53.1367 130.68 53.6399 131.684C54.1447 132.692 54.9508 133.45 55.928 134.011C57.9065 135.147 60.5054 135.426 62.3089 135.313L62.3309 135.311H146.353C149.515 135.311 151.552 134.007 152.844 132.399C154.148 130.775 154.71 128.815 154.824 127.517V77.4591C154.561 74.4509 152.539 72.6344 149.933 71.5709C147.323 70.5057 144.248 70.2588 142.199 70.3669C138.888 70.9551 135.96 69.9421 133.672 68.4764C131.382 67.0089 129.688 65.0607 128.816 63.6904L128.718 63.5358L128.707 63.3529C128.166 54.1462 122.695 51.0572 120.175 50.6055H88.3761L88.2849 50.5807C85.6461 49.861 83.2649 51.5604 81.2484 54.4345C79.2768 57.2446 77.8634 60.9076 77.1655 63.4464ZM88.5624 49.1938C85.0323 48.2867 82.1522 50.6884 80.0927 53.6236C77.9834 56.63 76.5085 60.4898 75.7896 63.1257L75.7751 63.1788L75.769 63.2335C75.5374 65.3179 73.5296 66.7789 70.6561 67.7232C67.849 68.6456 64.5404 68.9585 62.3529 68.9585C58.2333 68.9585 55.5624 70.3141 53.9266 72.0992C52.3103 73.8631 51.7647 75.9814 51.7647 77.4291V127.494C51.4768 129.424 51.7282 131.02 52.3777 132.317C53.0318 133.622 54.061 134.567 55.225 135.235C57.5201 136.553 60.4137 136.842 62.3747 136.723H146.353C149.968 136.723 152.401 135.204 153.944 133.283C155.466 131.389 156.106 129.13 156.233 127.605L156.235 127.576V77.3997L156.233 77.3705C155.92 73.6193 153.359 71.444 150.467 70.2638C147.589 69.0892 144.265 68.8381 142.078 68.9596L142.035 68.962L141.991 68.9699C139.109 69.494 136.524 68.6271 134.434 67.2877C132.42 65.9975 130.908 64.294 130.105 63.0823C129.456 53.2992 123.484 49.7254 120.351 49.2034L120.294 49.1938H88.5624Z" fill="white"/>
<path fill-rule="evenodd" clip-rule="evenodd" d="M77.1655 63.4464C76.8032 66.4091 74.0047 68.1089 71.0968 69.0644C68.1039 70.0478 64.6361 70.3702 62.3529 70.3702C58.5667 70.3702 56.2964 71.6028 54.9675 73.053C53.6191 74.5245 53.1765 76.2885 53.1765 77.4291V127.601L53.1683 127.654C52.9043 129.37 53.1367 130.68 53.6399 131.684C54.1447 132.692 54.9508 133.45 55.928 134.011C57.9065 135.147 60.5054 135.426 62.3089 135.313L62.3309 135.311H146.353C149.515 135.311 151.552 134.007 152.844 132.399C154.148 130.775 154.71 128.815 154.824 127.517V77.4591C154.561 74.4509 152.539 72.6344 149.933 71.5709C147.323 70.5057 144.248 70.2588 142.199 70.3669C138.888 70.9551 135.96 69.9421 133.672 68.4764C131.382 67.0089 129.688 65.0607 128.816 63.6904L128.718 63.5358L128.707 63.3529C128.166 54.1462 122.695 51.0572 120.175 50.6055H88.3761L88.2849 50.5807C85.6461 49.861 83.2649 51.5604 81.2484 54.4345C79.2768 57.2446 77.8634 60.9076 77.1655 63.4464ZM88.5624 49.1938C85.0323 48.2867 82.1522 50.6884 80.0927 53.6236C77.9834 56.63 76.5085 60.4898 75.7896 63.1257L75.7751 63.1788L75.769 63.2335C75.5374 65.3179 73.5296 66.7789 70.6561 67.7232C67.849 68.6456 64.5404 68.9585 62.3529 68.9585C58.2333 68.9585 55.5624 70.3141 53.9266 72.0992C52.3103 73.8631 51.7647 75.9814 51.7647 77.4291V127.494C51.4768 129.424 51.7282 131.02 52.3777 132.317C53.0318 133.622 54.061 134.567 55.225 135.235C57.5201 136.553 60.4137 136.842 62.3747 136.723H146.353C149.968 136.723 152.401 135.204 153.944 133.283C155.466 131.389 156.106 129.13 156.233 127.605L156.235 127.576V77.3997L156.233 77.3705C155.92 73.6193 153.359 71.444 150.467 70.2638C147.589 69.0892 144.265 68.8381 142.078 68.9596L142.035 68.962L141.991 68.9699C139.109 69.494 136.524 68.6271 134.434 67.2877C132.42 65.9975 130.908 64.294 130.105 63.0823C129.456 53.2992 123.484 49.7254 120.351 49.2034L120.294 49.1938H88.5624Z" stroke="white" stroke-width="4" stroke-linecap="round" stroke-linejoin="round"/>
</g>
<g filter="url(#filter2_d)">
<path fill-rule="evenodd" clip-rule="evenodd" d="M104 124.017C117.255 124.017 128 113.272 128 100.017C128 86.7625 117.255 76.0173 104 76.0173C90.7452 76.0173 80 86.7625 80 100.017C80 113.272 90.7452 124.017 104 124.017ZM104 125.429C118.035 125.429 129.412 114.052 129.412 100.017C129.412 85.9828 118.035 74.6055 104 74.6055C89.9655 74.6055 78.5882 85.9828 78.5882 100.017C78.5882 114.052 89.9655 125.429 104 125.429Z" fill="white"/>
<path d="M127 100.017C127 112.72 116.703 123.017 104 123.017C91.2974 123.017 81 112.72 81 100.017C81 87.3148 91.2974 77.0173 104 77.0173C116.703 77.0173 127 87.3148 127 100.017ZM104 126.429C118.587 126.429 130.412 114.604 130.412 100.017C130.412 85.4305 118.587 73.6055 104 73.6055C89.4132 73.6055 77.5882 85.4305 77.5882 100.017C77.5882 114.604 89.4132 126.429 104 126.429Z" stroke="white" stroke-width="2"/>
</g>
<g filter="url(#filter3_d)">
<path fill-rule="evenodd" clip-rule="evenodd" d="M96.6847 89.5465C99.2527 87.6783 102.139 87.1858 104.047 87.313L103.953 88.7216C102.332 88.6135 99.7826 89.0386 97.5153 90.6881C95.2728 92.3195 93.2464 95.1913 92.7016 100.095L91.2984 99.9394C91.883 94.6786 94.0919 91.4328 96.6847 89.5465Z" fill="white"/>
<path fill-rule="evenodd" clip-rule="evenodd" d="M96.6847 89.5465C99.2527 87.6783 102.139 87.1858 104.047 87.313L103.953 88.7216C102.332 88.6135 99.7826 89.0386 97.5153 90.6881C95.2728 92.3195 93.2464 95.1913 92.7016 100.095L91.2984 99.9394C91.883 94.6786 94.0919 91.4328 96.6847 89.5465Z" stroke="white"/>
</g>
<defs>
<filter id="filter0_d" x="0" y="0" width="208" height="208" filterUnits="userSpaceOnUse" color-interpolation-filters="sRGB">
<feFlood flood-opacity="0" result="BackgroundImageFix"/>
<feColorMatrix in="SourceAlpha" type="matrix" values="0 0 0 0 0 0 0 0 0 0 0 0 0 0 0 0 0 0 127 0"/>
<feOffset dy="4"/>
<feGaussianBlur stdDeviation="2"/>
<feColorMatrix type="matrix" values="0 0 0 0 0 0 0 0 0 0 0 0 0 0 0 0 0 0 0.25 0"/>
<feBlend mode="normal" in2="BackgroundImageFix" result="effect1_dropShadow"/>
<feBlend mode="normal" in="SourceGraphic" in2="effect1_dropShadow" result="shape"/>
</filter>
<filter id="filter1_d" x="45.6468" y="46.9936" width="116.589" height="99.7538" filterUnits="userSpaceOnUse" color-interpolation-filters="sRGB">
<feFlood flood-opacity="0" result="BackgroundImageFix"/>
<feColorMatrix in="SourceAlpha" type="matrix" values="0 0 0 0 0 0 0 0 0 0 0 0 0 0 0 0 0 0 127 0"/>
<feOffset dy="4"/>
<feGaussianBlur stdDeviation="2"/>
<feColorMatrix type="matrix" values="0 0 0 0 0 0 0 0 0 0 0 0 0 0 0 0 0 0 0.25 0"/>
<feBlend mode="normal" in2="BackgroundImageFix" result="effect1_dropShadow"/>
<feBlend mode="normal" in="SourceGraphic" in2="effect1_dropShadow" result="shape"/>
</filter>
<filter id="filter2_d" x="72.5882" y="72.6055" width="62.8235" height="62.8235" filterUnits="userSpaceOnUse" color-interpolation-filters="sRGB">
<feFlood flood-opacity="0" result="BackgroundImageFix"/>
<feColorMatrix in="SourceAlpha" type="matrix" values="0 0 0 0 0 0 0 0 0 0 0 0 0 0 0 0 0 0 127 0"/>
<feOffset dy="4"/>
<feGaussianBlur stdDeviation="2"/>
<feColorMatrix type="matrix" values="0 0 0 0 0 0 0 0 0 0 0 0 0 0 0 0 0 0 0.25 0"/>
<feBlend mode="normal" in2="BackgroundImageFix" result="effect1_dropShadow"/>
<feBlend mode="normal" in="SourceGraphic" in2="effect1_dropShadow" result="shape"/>
</filter>
<filter id="filter3_d" x="86.7463" y="86.7942" width="21.8328" height="21.8532" filterUnits="userSpaceOnUse" color-interpolation-filters="sRGB">
<feFlood flood-opacity="0" result="BackgroundImageFix"/>
<feColorMatrix in="SourceAlpha" type="matrix" values="0 0 0 0 0 0 0 0 0 0 0 0 0 0 0 0 0 0 127 0"/>
<feOffset dy="4"/>
<feGaussianBlur stdDeviation="2"/>
<feColorMatrix type="matrix" values="0 0 0 0 0 0 0 0 0 0 0 0 0 0 0 0 0 0 0.25 0"/>
<feBlend mode="normal" in2="BackgroundImageFix" result="effect1_dropShadow"/>
<feBlend mode="normal" in="SourceGraphic" in2="effect1_dropShadow" result="shape"/>
</filter>
</defs>
</svg>
